<svg width="60" height="60" viewBox="0 0 60 60" fill="none" xmlns="http://www.w3.org/2000/svg">
<path d="M30 0C13.425 0 4.37863e-06 13.7649 4.37863e-06 30.7596C-0.00339828 37.2169 1.97644 43.5113 5.65865 48.7498C9.34086 53.9884 14.5384 57.9051 20.514 59.9442C22.014 60.2119 22.575 59.2891 22.575 58.4801C22.575 57.7511 22.536 55.3303 22.536 52.7527C15 54.1768 13.05 50.8702 12.45 49.1384C12.111 48.2525 10.65 45.5242 9.375 44.7921C8.325 44.2169 6.825 42.7927 9.336 42.7558C11.7 42.7158 13.386 44.9859 13.95 45.9086C16.65 50.5595 20.964 49.2522 22.686 48.4463C22.95 46.4469 23.736 45.1028 24.6 44.3338C17.925 43.5648 10.95 40.9102 10.95 29.1447C10.95 25.798 12.111 23.0328 14.025 20.8765C13.725 20.1075 12.675 16.9547 14.325 12.7252C14.325 12.7252 16.836 11.9193 22.575 15.8812C25.0172 15.1862 27.5405 14.8364 30.075 14.8415C32.625 14.8415 35.175 15.186 37.575 15.8781C43.311 11.8793 45.825 12.7283 45.825 12.7283C47.475 16.9577 46.425 20.1106 46.125 20.8796C48.036 23.0328 49.2 25.7611 49.2 29.1447C49.2 40.9502 42.189 43.5648 35.514 44.3338C36.6 45.2935 37.539 47.139 37.539 50.0243C37.539 54.1368 37.5 57.4435 37.5 58.4832C37.5 59.2891 38.064 60.2488 39.564 59.9412C45.5191 57.8797 50.6938 53.9553 54.3597 48.7205C58.0257 43.4857 59.9983 37.204 60 30.7596C60 13.7649 46.575 0 30 0Z" fill="#A7A5A6"/>
</svg>
