<svg width="29" height="30" viewBox="0 0 29 30" fill="none" xmlns="http://www.w3.org/2000/svg">
<path d="M25.2001 15.948C25.0113 17.9906 24.2447 19.9373 22.9899 21.5601C21.7352 23.183 20.0442 24.415 18.1149 25.1118C16.1856 25.8087 14.0976 25.9417 12.0955 25.4953C10.0933 25.0489 8.25965 24.0415 6.80912 22.5909C5.3586 21.1404 4.35118 19.3068 3.90474 17.3046C3.4583 15.3024 3.59131 13.2145 4.2882 11.2852C4.9851 9.35581 6.21705 7.66484 7.83991 6.4101C9.46277 5.15536 11.4094 4.38876 13.4521 4.2C12.2561 5.81792 11.6807 7.81134 11.8303 9.81769C11.9799 11.8241 12.8447 13.7101 14.2673 15.1327C15.69 16.5554 17.576 17.4201 19.5824 17.5698C21.5887 17.7194 23.5821 17.1439 25.2001 15.948Z" stroke="#A7A5A6" stroke-width="2" stroke-linecap="round" stroke-linejoin="round"/>
</svg>
